<svg width="1366" height="1555" viewBox="0 0 1366 1555" fill="none" xmlns="http://www.w3.org/2000/svg">
<path d="M1016.12 1212.84C1012.09 1190.08 1008.39 1167.25 1005.04 1144.38C1003.45 1133.52 1001.89 1122.65 1000.49 1111.76C999.51 1104.13 998.02 1095.41 1003.21 1089.76C1010.51 1081.81 1017.15 1075 1018.04 1063.61C1018.88 1052.89 1015.26 1041.21 1012.99 1030.81C1008.24 1008.99 1002.32 987.45 995.78 966.11C989.14 944.43 981.86 922.95 974.47 901.51C967.56 881.47 960.93 861.24 951.93 842.01C934.86 805.51 905.98 778.49 870.29 760.44C861.41 755.95 843.31 739.93 834.03 736.34C825.5 733.04 825.53 742.67 817.14 739.04C810.43 736.14 804.19 732.27 800.43 725.8C796.35 718.77 786.13 708.93 784.57 700.74C781.27 683.39 784.85 668.62 772.46 655.56C761.47 643.96 746.69 636.02 731.4 631.75C697.76 622.37 652.91 628.93 632.61 660.18C622.92 675.11 619.53 693.15 606.45 705.33C595.03 715.97 597.59 723.24 582.79 728.72C581.95 729.03 559.24 724.16 558.41 724.47C542.23 721 526.76 730.71 511.92 736.33C489.81 744.76 468.68 755.58 448.92 768.6C409 794.75 374.81 828.72 346.62 867.15C318.2 905.9 296.15 949.33 280.45 994.73C276.64 1005.76 273.22 1016.91 270.19 1028.19C268.5 1034.5 266.69 1041.04 268.75 1047.49C270.43 1052.77 274.18 1056.7 278.58 1059.88C284.54 1064.18 296.5 1066.97 296.27 1075.61C296.09 1082.18 293.86 1089.09 292.77 1095.59C291.47 1103.32 290.41 1111.1 289.35 1118.87C284.51 1154.22 280.74 1189.77 279.08 1225.42C277.44 1260.52 276.08 1296.34 278.51 1331.43C278.65 1333.64 279.32 1335.78 280.47 1337.66C279.77 1338 279.48 1338.85 279.83 1339.55C280 1339.89 280.29 1340.15 280.65 1340.27L283.37 1340.85C285.37 1342.35 287.8 1343.18 290.3 1343.23C292.13 1343.29 293.96 1343.37 295.79 1343.46C315.09 1347.49 334.39 1351.31 353.94 1354.19C377.71 1357.7 401.55 1360.6 425.46 1362.88C474.59 1367.66 523.34 1366.07 572.54 1363.5C621.66 1360.93 670.8 1360.3 719.93 1361.61C769.15 1362.89 818.35 1365.03 867.58 1365.91C922.58 1366.89 977.49 1365.38 1032.33 1361.01C1039.85 1360.41 1044.5 1354.43 1043.02 1346.96C1034.13 1302.22 1024.07 1257.77 1016.11 1212.84H1016.12Z" fill="white"/>
<path d="M511.92 736.34L512.99 735.93C527.51 730.26 542.62 721.11 558.41 724.49C558.97 724.28 569.24 726.38 576.28 727.7L569.6 734.67L557.81 736.94C598.48 804.07 646.59 837.63 702.13 837.63C757.67 837.63 799.81 804.07 828.55 736.94L832.47 735.85C833 735.97 833.52 736.14 834.02 736.33C843.29 739.92 861.4 755.94 870.28 760.43C905.97 778.48 934.85 805.5 951.92 842C960.62 860.59 967.11 880.11 973.77 899.49L974.46 901.49C981.85 922.93 989.13 944.41 995.77 966.09C1002.02 986.5 1007.71 1007.11 1012.35 1027.95L1012.98 1030.79C1015.25 1041.19 1018.87 1052.88 1018.03 1063.59C1017.76 1067.31 1016.77 1070.94 1015.12 1074.28L934.67 1103.23L973 1364.62C937.89 1366.13 902.75 1366.55 867.58 1365.89C818.35 1365.01 769.15 1362.87 719.93 1361.59C672.25 1360.35 624.6 1360.91 577 1363.25L564.9 1363.87C518.29 1366.2 472.04 1367.39 425.45 1362.86L422.27 1362.55V1324.32L438.64 1111.41L355.7 1095.8L274.28 1056.25C271.75 1053.82 269.86 1050.81 268.75 1047.48C266.84 1041.5 268.25 1035.45 269.81 1029.58L270.19 1028.18C273.21 1016.91 276.63 1005.76 280.45 994.72C296.15 949.33 318.2 905.89 346.62 867.14C374.81 828.71 409 794.74 448.92 768.59C468.68 755.57 489.81 744.75 511.92 736.31V736.34Z" fill="white"/>
<path d="M422.57 1365.78C422.23 1365.78 421.89 1365.76 421.55 1365.72C419.37 1365.45 417.36 1364.38 415.92 1362.72C414.46 1361.07 413.64 1358.95 413.62 1356.74C413.58 1348.38 414.32 1339.83 415.03 1331.56C415.33 1328.07 415.64 1324.46 415.89 1320.94C416.58 1311.09 417.35 1300.66 418.39 1287.12C420.4 1261.01 422.65 1234.48 424.82 1208.83C426.07 1194.08 427.36 1178.84 428.59 1163.8C429.64 1151.01 430.85 1137.12 432.41 1120.08C421.21 1119.69 410.06 1118.43 399.06 1116.32C388.12 1114.2 377.32 1111.42 366.73 1107.99C356.69 1104.77 346.41 1100.94 335.32 1096.27C325.95 1092.32 315.95 1087.76 304.74 1082.32C304.18 1094.92 302.86 1107.69 301.58 1120.05L301.38 1121.96C297.14 1162.93 293.98 1199.06 291.71 1232.42C290.61 1248.58 289.69 1265.84 288.71 1288.38C288.32 1297.52 287.99 1306.78 287.75 1315.9C287.67 1319 287.59 1322.09 287.53 1325.08L287.39 1332.09C287.28 1336.44 286.87 1340.61 283.09 1343.88C281.32 1345.47 279.03 1346.37 276.65 1346.41C274.32 1346.39 272.09 1345.49 270.41 1343.88C268.4 1342.03 267.07 1339.57 266.63 1336.87C266.24 1334.2 266.15 1331.5 266.35 1328.81C266.38 1328.12 266.4 1327.41 266.42 1326.72C266.54 1321.56 266.69 1316.27 266.87 1310.99C267.21 1300.58 267.66 1290 268.2 1279.54C269.95 1245.46 273.41 1209.66 278.78 1170.07L280.7 1156.04C282.43 1143.47 284.33 1130.08 286.81 1116.74C289.15 1103.7 292.3 1090.81 296.25 1078.16C293.22 1076.66 290.08 1075.08 286.9 1073.47C285.27 1072.65 283.6 1071.82 281.99 1071.03C278.12 1069.13 274.13 1067.16 270.36 1064.99C265.27 1062.06 262.3 1058.56 261.27 1054.26C260.13 1049.51 261.45 1044.47 262.73 1039.6V1039.58C262.94 1038.82 263.12 1038.1 263.31 1037.37L263.43 1036.9C264.69 1031.73 266.11 1026.3 267.65 1020.75C273.72 999.02 281.17 977.69 289.94 956.9C307.39 915.15 330.18 875.84 357.74 839.96C370.16 823.79 383.79 808.58 398.51 794.46C406.01 787.32 413.76 780.57 421.56 774.4C429.55 768.07 437.86 762.16 446.46 756.68C454.86 751.33 463.57 746.47 472.54 742.14C481.51 737.81 490.76 734.08 500.22 730.97C509.25 727.89 518.57 725.72 528.03 724.5C532.48 724 537.27 723.65 543.09 723.4C543.65 723.38 544.24 723.36 544.84 723.36C548.2 723.43 551.56 723.68 554.89 724.11H554.93C556.08 724.24 557.28 724.37 558.44 724.49C558.67 724.52 558.84 724.71 558.86 724.94C558.88 725.13 558.75 725.29 558.56 725.32C549.55 727.2 540.66 729.76 531.58 732.45L527.76 733.58C518.31 736.38 508.18 739.53 498.21 743.59C478.78 751.66 460.39 762.01 443.42 774.44C412.31 796.93 383.88 825.97 358.91 860.76C347.08 877.3 336.31 894.57 326.66 912.48C317.1 930.22 308.53 948.48 301.01 967.18C292.91 987.29 286.05 1007.89 280.48 1028.85C279.17 1033.78 277.88 1038.94 276.65 1044.2C276.57 1044.53 276.44 1044.97 276.28 1045.48C275.75 1047.24 274.94 1049.89 275.6 1051.1C276.15 1052.1 277.87 1052.82 279.26 1053.41C279.77 1053.62 280.25 1053.82 280.61 1054.01L285.17 1056.37C294.05 1060.95 308.85 1068.47 310.37 1069.23L312.69 1070.37C334.97 1081.29 353.64 1089.01 371.45 1094.65C381.53 1097.87 391.79 1100.47 402.19 1102.42C412.61 1104.37 423.17 1105.5 433.77 1105.8L434.1 1102.16C435.92 1082.83 438.38 1062.19 443.95 1042.25C444.03 1041.88 444.35 1041.62 444.72 1041.61C445.22 1041.62 445.63 1041.99 445.7 1042.49C447.14 1054.02 447.82 1065.64 447.74 1077.26C447.74 1088.46 447.28 1099.67 446.71 1112.11C445.42 1140.48 443.81 1169.3 442.25 1197.17V1197.19C441.55 1209.72 440.82 1222.69 440.14 1235.43C439.36 1249.83 438.41 1264.46 437.49 1278.61V1278.63C437.1 1284.66 436.69 1290.9 436.3 1297.09C435.96 1302.42 435.68 1307.88 435.41 1313.17V1313.19C434.63 1328.37 433.82 1344.07 431.63 1359.2C431.29 1361.22 430.09 1362.99 428.35 1364.07C426.65 1365.19 424.66 1365.79 422.62 1365.81L422.57 1365.78ZM1035.73 1349.32C1034.85 1349.31 1033.99 1349.11 1033.2 1348.74L1032.57 1348.45C1029.3 1346.92 1026.5 1345.34 1025.26 1341.4C1024.77 1339.7 1024.41 1337.96 1024.16 1336.21C1024.02 1335.37 1023.88 1334.51 1023.72 1333.69C1022.75 1328.84 1021.83 1323.96 1020.98 1319.19C1019.26 1309.52 1017.56 1299.73 1015.93 1290.09L1014.4 1281C1009.34 1250.9 1004.18 1218.82 1001.6 1186.49C1000.43 1171.83 999.17 1157.07 998.09 1144.38L997.19 1133.85C997.01 1131.75 996.82 1129.61 996.64 1127.54V1127.5C995.65 1116.3 994.63 1104.73 994.47 1093.36L989.94 1094.97L967.83 1102.79C966.46 1103.27 965.02 1103.87 963.49 1104.51C959.5 1106.17 954.99 1108.06 950.93 1108.06C950.44 1108.06 949.95 1108.03 949.46 1107.97C946.93 1107.8 944.54 1106.77 942.67 1105.06C944.78 1134.85 947.63 1163.77 951.14 1191.01C954.85 1219.86 958.59 1245.28 962.56 1268.72C964.33 1279.18 966.71 1292.98 969.37 1307.01C970.56 1313.29 971.82 1319.71 973.11 1326.09C973.31 1327.08 973.52 1328.08 973.73 1329.06C974.19 1331.21 974.67 1333.43 975.01 1335.63C975.58 1339.25 974.62 1341.48 972.53 1344.55C971.4 1346.26 969.52 1347.31 967.47 1347.37C966.51 1347.37 965.58 1347.1 964.77 1346.59C963.18 1345.67 961.75 1344.5 960.54 1343.12C959.41 1341.69 958.62 1340.03 958.22 1338.25C957.55 1335.65 957.06 1332.94 956.58 1330.32V1330.29C956.37 1329.14 956.15 1327.96 955.92 1326.81C954.56 1319.9 953.22 1312.83 951.93 1305.79C949.15 1290.63 946.67 1275.79 944.55 1261.66C940.72 1236.13 937.49 1209.81 934.94 1183.42C932.46 1157.74 930.57 1131.29 929.31 1104.79C928.14 1080.17 927.68 1054.74 927.91 1027.05C928.03 1012.6 928.52 999.56 929.4 987.18C930.18 976.16 931.69 965.11 933.14 954.43V954.33C933.47 952.03 933.79 949.66 934.1 947.32C934.12 947.11 934.29 946.96 934.5 946.96C934.69 946.96 934.85 947.11 934.86 947.31C934.86 947.31 934.86 947.31 934.86 947.32C935.21 953.49 935.64 959.76 936.06 965.83C936.66 974.42 937.27 983.29 937.65 992.04C938.03 1000.75 938.28 1009.62 938.52 1018.2C938.67 1023.65 938.83 1029.28 939.02 1034.82C939.67 1053.95 940.59 1072.87 941.73 1091.06C943.55 1089.02 946.15 1087.84 948.89 1087.8C949.36 1087.8 949.83 1087.84 950.29 1087.91C953.43 1087.14 956.5 1086.12 959.47 1084.85C961.19 1084.18 962.81 1083.54 964.39 1083.01L981.12 1077.42C989.45 1074.64 998.42 1071.66 1007.54 1068.73C1000.71 1045.75 995.18 1020.81 989.62 987.89L987.56 975.59C985.61 963.99 983.45 951.57 980.87 939.37C978.07 926.07 975.07 914.41 971.7 903.73C967.85 891.48 962.99 879.57 957.18 868.12C951.35 856.68 944.57 845.75 936.91 835.44C929.26 825.23 920.94 815.55 912 806.44C903.99 798.19 895.16 789.83 884.22 780.15C874.73 771.75 864.69 763.69 854.97 755.9C848.02 750.32 840.83 744.55 833.89 738.7C834.07 739.72 834.09 740.75 833.95 741.78C833.06 748.23 831.57 754.59 829.51 760.77C827.44 766.95 824.85 772.94 821.77 778.68C818.68 784.43 815.14 789.92 811.17 795.1C796.89 813.78 777.6 828.01 755.55 836.15C747.76 839.05 739.71 841.22 731.52 842.65C723.29 844.08 714.96 844.8 706.61 844.79C698.07 844.79 689.54 844.06 681.12 842.62C672.64 841.17 664.3 839.02 656.18 836.19C644.38 832.05 633.07 826.61 622.47 819.97C611.76 813.29 601.8 805.45 592.79 796.61C583.79 787.81 575.86 777.99 569.14 767.35C562.46 756.78 557.2 745.37 553.51 733.41C553.44 733.22 553.47 733 553.59 732.83C553.73 732.65 553.95 732.55 554.18 732.56C554.43 732.56 554.66 732.67 554.8 732.87C555.5 733.83 556.2 734.79 556.93 735.77L557.24 736.2C557.18 735.7 557.48 735.23 557.96 735.07C577.42 727.56 593.08 717.77 604.49 705.97C610.75 699.53 616.11 692.27 620.43 684.39C622.51 680.63 624.31 676.72 625.8 672.7L626.17 671.66C626.37 671.09 626.58 670.5 626.76 669.98C628.28 665.58 629.86 661.03 633.17 657.47C634.71 655.79 636.89 654.85 639.17 654.88C642.35 654.93 645.33 656.46 647.23 659.02C648.78 661.12 649.19 663.84 648.32 666.3C645.01 676.35 640.47 685.94 634.8 694.87C631.96 699.28 628.78 703.46 625.28 707.37C621.73 711.33 617.85 714.97 613.67 718.25C606.52 723.94 598.61 728.59 590.15 732.06C581.76 735.5 572.79 737.29 563.73 737.35C561.9 737.35 560.05 737.27 558.23 737.12C558.09 737.11 557.94 737.07 557.81 737.01L559.58 739.4C565.3 747.14 572.92 757.26 581.21 766.96C588.73 775.88 596.9 784.24 605.66 791.95C612.66 798.04 620.14 803.56 628.03 808.46C635.89 813.34 644.14 817.55 652.71 821.05C661.22 824.52 670.04 827.21 679.05 829.07C688.04 830.93 697.2 831.87 706.39 831.88C716.92 831.88 727.41 830.59 737.62 828.01C746.95 825.63 755.93 822.06 764.35 817.39C772.8 812.73 780.64 807.02 787.67 800.41C794.68 793.84 800.79 786.37 805.83 778.18C810.87 770 814.67 761.11 817.08 751.81C816.13 752.23 815.1 752.45 814.06 752.45C813.46 752.45 812.85 752.38 812.27 752.25C804.6 750.58 797.02 742.57 791.99 736.68C786.66 730.52 782.39 723.52 779.35 715.96C776.38 708.64 774.74 700.85 774.49 692.96C774.37 689.01 774.73 685.06 775.54 681.19C776.34 677.37 777.71 673.7 779.61 670.29C779.87 669.76 780.41 669.42 781.01 669.41C782 669.45 782.81 670.21 782.93 671.19L783.22 673.74C784.69 686.4 786.51 698.73 792.55 710.4C795.43 716.17 799.04 721.54 803.3 726.38C805.59 728.95 808.09 731.33 810.77 733.49C811.81 734.32 812.95 735.06 814.06 735.79C815.8 736.84 817.42 738.07 818.9 739.46L819.33 739.92V739.84C819.51 737.78 820.43 735.85 821.94 734.44C823.24 733.31 824.9 732.7 826.62 732.71C826.72 732.71 826.82 732.71 826.93 732.71C829.97 732.97 832.95 733.76 835.73 735.02L835.87 735.09C857.07 745.26 878.36 759.01 900.97 777.12C921.73 793.63 939.99 813.07 955.17 834.82C970.31 856.59 981.86 880.65 989.38 906.08C996.3 929.57 1000.54 954.1 1004.65 977.82L1004.7 978.09C1005.01 979.89 1005.32 981.69 1005.64 983.49L1008.42 999.41C1010.34 1010.33 1012.64 1023.02 1015.65 1035.41C1018.42 1047.28 1022.17 1058.9 1026.86 1070.15C1028.12 1072.74 1028.25 1075.74 1027.21 1078.43C1026.07 1080.89 1023.96 1082.76 1021.39 1083.6C1014.83 1086.07 1007.62 1088.7 998.71 1091.89C1001.39 1103.4 1003.35 1115.34 1005.23 1126.89V1126.93C1005.96 1131.36 1006.71 1135.95 1007.49 1140.41C1010.83 1159.6 1014.65 1179.05 1018.34 1197.85V1197.88C1021.22 1212.47 1024.18 1227.56 1026.9 1242.44C1028.5 1251.2 1030.05 1260.12 1031.55 1268.75C1033.03 1277.27 1034.56 1286.08 1036.14 1294.74C1037.08 1299.88 1038.08 1305.23 1038.97 1309.95L1039.05 1310.38C1039.63 1313.49 1040.24 1316.72 1040.83 1319.88C1041.38 1322.86 1041.91 1325.89 1042.42 1328.82C1042.67 1330.25 1042.95 1331.87 1043.23 1333.46L1043.37 1334.21C1043.41 1334.39 1043.44 1334.58 1043.48 1334.76C1043.91 1336.97 1044.36 1339.25 1043.75 1341.46C1043.08 1343.9 1041.3 1345.7 1039.58 1347.45L1039.56 1347.47C1039.36 1347.67 1039.16 1347.87 1038.97 1348.07C1038.13 1348.93 1036.97 1349.41 1035.77 1349.38L1035.73 1349.32Z" fill="black"/>
<path d="M876.95 341.57C869.87 316.07 870.88 313.32 860.34 288.96C825.36 218.21 591.6 241.9 567.74 312.52C554.8 350.83 557.84 404.79 554.47 438.02C553.44 455.63 552.41 473.25 551.38 490.86C551.02 496.94 550.65 503.03 550.28 509.11C549.55 520.95 548.85 532.79 548.18 544.63C543.78 581.12 562.12 584.83 593.57 583.75C601.88 603.81 615.35 620.56 631.99 634.18C627.98 645.1 642.53 650.76 650.39 655.12C693.12 678.98 745.61 693.54 792.95 680.12C806.86 676.18 864.29 662.52 881.95 620.26C890.62 599.5 908.25 492.02 885 395.33L876.95 341.56V341.57Z" fill="white"/>
<path d="M767.44 692.02C756.04 692.02 744.68 690.83 733.53 688.49C727.17 687.15 720.93 685.26 714.9 682.83C708.68 680.35 703.44 676.72 697.47 672.04C696.17 670.94 695.65 669.18 696.15 667.55C696.36 666.66 696.79 665.83 697.39 665.14C697.97 664.46 698.77 663.99 699.64 663.81C700.46 663.64 701.28 663.47 702.08 663.31C703.65 662.98 705.28 662.64 706.89 662.35C707.07 662.32 707.25 662.3 707.43 662.3C708.59 662.34 709.68 662.89 710.4 663.8C710.98 664.46 711.22 665.34 711.07 666.2L715.75 667.41C717.03 667.74 718.73 668.18 720.43 668.64L722.76 669.28C729.41 671.16 736.16 672.67 742.97 673.8C750.46 675 758.03 675.6 765.61 675.58C772.13 675.58 778.65 675.16 785.12 674.35C797 672.91 808.65 670 819.81 665.7C830.99 661.43 841.39 655.36 850.6 647.71C859.53 640.27 866.92 631.15 872.34 620.87C875.65 614.32 878.08 607.37 879.58 600.19C881.08 593.01 882.22 585.76 882.98 578.46C885.38 557.47 886.42 536.35 886.08 515.23C885.86 496.14 884.71 475.45 882.56 452C880.54 430 877.73 407.93 875.24 389.25C874.84 386.26 874.42 383.21 874.02 380.27V380.21V380.2C872.99 372.63 871.92 364.8 871.01 357.09C868.14 356.33 865.44 355.03 863.06 353.24C861.62 352.23 860.56 350.77 860.04 349.09C857.45 348.6 855.14 347.14 853.57 345.02L853.35 344.72C848.77 338.1 840.7 334.43 834.17 331.97C830.43 330.56 826.58 329.29 822.85 328.07L821.13 327.5C819.88 327.08 818.58 326.6 817.32 326.14C814.01 324.76 810.56 323.77 807.02 323.18C806.11 323.07 805.19 323.02 804.27 323.03C802.45 323.03 800.59 323.2 798.79 323.37H798.77C796.96 323.54 795.09 323.71 793.25 323.71C792.4 323.71 791.55 323.67 790.7 323.58C785.84 323.2 781.27 321.12 777.8 317.7C776.55 316.45 775.47 315.04 774.61 313.49C769.71 314.48 764.71 314.95 759.71 314.89C754.68 314.89 749.5 314.53 744.5 314.19H744.42C739.38 313.84 734.17 313.47 729.01 313.47C726.94 313.47 725.03 313.53 723.17 313.64C717.85 313.98 712.75 315.72 707.81 317.41C702.33 319.28 696.66 321.22 690.71 321.22H690.25C687.18 321.2 684.21 320.11 681.86 318.14C672.43 319.94 662.96 323.15 653.81 326.25H653.77C652.45 326.71 651.09 327.17 649.77 327.61C643.94 329.57 638.15 331.95 632.55 334.25C628.46 335.93 624.24 337.67 620.03 339.23C620.03 339.23 620.027 339.237 620.02 339.25C619.54 340.9 618.52 342.33 617.12 343.32C615.75 344.24 614.13 344.72 612.48 344.7C611.88 344.7 611.29 344.64 610.7 344.54C603.5 343.26 596.8 340.19 590.33 337.22C584.66 334.63 578.8 331.94 572.66 330.49C571.97 333.01 571.26 335.55 570.57 338.02C567.66 348.47 564.64 359.27 562.49 370.15C559.83 383.74 557.88 397.46 556.66 411.25C555.44 424.67 554.8 438.69 554.77 452.93C554.77 459.02 554.89 465.58 555.18 474.19C555.22 475.43 555.3 476.73 555.39 478.09C555.7 483.12 556.06 488.81 554.37 493.32L554.18 493.8H554.17C553.98 494.35 553.47 494.73 552.89 494.74C552.57 494.74 552.28 494.6 552.07 494.36C548.49 490.2 547.34 483.91 546.33 478.35C546.2 477.66 546.08 477 545.96 476.34C544.78 470.14 543.87 463.48 543.03 454.76C542.33 447.56 541.9 440.24 541.74 433.02C541.58 425.84 541.69 418.51 542.06 411.23C542.76 396.6 544.37 382.03 546.86 367.6C549.32 353.15 553.02 338.95 557.93 325.14C557.83 325.14 557.75 325.15 557.66 325.15C556.79 325.15 555.54 324.73 554.52 322.72C553.88 321.38 553.48 319.94 553.36 318.46C552.97 313.37 553.77 308.03 554.62 303L555.52 297.76C556.25 292.82 557.4 287.94 558.95 283.19C563.02 271.66 568.77 260.8 576.04 250.96C583.4 240.97 592.18 232.12 602.11 224.68C612.04 217.24 622.97 211.25 634.59 206.89C635.3 206.61 636.06 206.47 636.83 206.47C637.45 206.47 638.07 206.57 638.65 206.77C659.95 195.39 682.49 186.51 705.82 180.28C712.22 178.56 719.8 176.61 727.53 175.23C729.29 174.91 731.08 174.74 732.87 174.73C738.7 174.73 742.89 176.84 745.32 181.01C746.09 182.31 746.63 183.73 746.91 185.21C757.49 182.86 768.3 181.68 779.14 181.7C786.85 181.7 794.55 182.27 802.18 183.37C804.43 183.73 806.35 185.21 807.26 187.3C808.57 189.95 808.54 193.06 807.19 195.68C806.96 196.08 806.7 196.52 806.42 196.94C812.26 197.42 818.04 198.43 823.69 199.95C826.19 200.75 828.25 202.55 829.38 204.91C830.33 206.68 830.47 208.77 829.75 210.64C829.6 211 829.43 211.36 829.28 211.72L829.26 211.78C833.76 212.53 838.16 213.81 842.36 215.58C846.63 217.39 850.66 219.72 854.35 222.52C855.29 223.23 856.1 224.08 856.77 225.05C859.77 224.72 862.78 224.55 865.79 224.55C879.77 224.58 893.53 228.08 905.83 234.73C908.1 236.07 909.71 238.3 910.26 240.89C910.88 243.18 910.5 245.63 909.21 247.63C908.29 248.94 907.37 250.13 906.39 251.28C909.64 252.45 912.69 254.08 915.47 256.13C918.31 258.26 920.72 260.91 922.57 263.94C924.69 267.43 926.07 271.31 926.64 275.35C927.23 279.34 926.95 283.41 925.83 287.28C930.87 292.47 932.95 299.87 931.36 306.93C930.07 312.97 925.98 318.04 920.35 320.58C921.41 323.95 920.55 327.63 918.11 330.18C914.4 334.04 909.91 337.06 904.95 339.06C904.93 340.39 904.6 341.69 903.98 342.86C901.68 347.13 898.28 350.7 894.13 353.2C889.95 355.79 885.23 357.38 880.33 357.82C883.63 371.67 886.36 385.83 888.87 399.15C891.23 411.64 893.28 424.07 894.98 436.08C896.75 448.65 898.19 461.16 899.25 473.26L899.52 476.33C901.44 497.61 902.26 518.97 901.97 540.33C901.75 551.46 901.12 562.25 900.1 572.39C899.05 582.97 897.46 593.49 895.34 603.91C893.99 610.43 891.95 616.8 889.26 622.89C886.6 628.91 883.35 634.65 879.55 640.03C875.75 645.42 871.46 650.44 866.73 655.05C861.97 659.69 856.82 663.91 851.33 667.66C840.06 675.28 827.7 681.15 814.66 685.05C801.64 688.99 788.18 691.27 774.6 691.84C772.24 691.95 769.83 692 767.45 692L767.44 692.02ZM647.06 655.41C644.23 655.41 641 654.35 637.19 652.17C634.19 650.38 631.3 648.39 628.56 646.22L627.74 645.6C620.62 640.41 614.12 634.43 608.34 627.78C602.48 621 597.59 613.44 593.81 605.31C591.73 600.8 590.27 596.03 589.49 591.12C584.64 593.17 579.42 594.22 574.16 594.19C565.96 594.23 557.93 591.83 551.1 587.29C544.45 582.76 539.5 576.11 536.4 567.55C533.7 559.58 532.39 551.22 532.52 542.81V541.83C532.54 537.68 532.86 533.54 533.47 529.44C534.09 525.26 535.11 521.14 536.54 517.16C539.74 508.42 544.73 501.87 551.38 497.7C553.8 496.23 556.42 495.13 559.16 494.41C562.16 493.59 565.25 493.18 568.36 493.16C572.05 493.08 575.71 493.85 579.05 495.4C582.3 496.94 584.87 499.62 586.25 502.95C586.33 503.12 586.31 503.32 586.2 503.48C586.05 503.69 585.81 503.82 585.55 503.83C585.5 503.83 585.45 503.83 585.4 503.81L584.09 503.48C581.52 502.76 578.87 502.36 576.21 502.28C573.91 502.28 571.64 502.72 569.51 503.59C564.83 505.35 560.7 508.31 557.53 512.18C555.79 514.47 554.36 517 553.31 519.68C552.26 522.36 551.49 525.15 551.01 527.99C550.11 533.71 549.88 539.51 550.32 545.29L550.35 545.83C550.55 551.04 551.57 556.19 553.36 561.09C554.28 563.49 555.56 565.74 557.16 567.75C558.79 569.77 560.83 571.42 563.14 572.6C567.28 574.69 571.83 574.87 575.76 574.87C576.45 574.87 577.14 574.87 577.82 574.86H578.63H579.14C585.07 574.78 590.97 575.61 596.64 577.34C598.32 577.9 599.58 579.3 599.97 581.02C600.33 582.53 599.85 584.12 598.71 585.17C597.83 586 596.89 586.77 595.91 587.48C599.43 591.23 602.08 594.19 604.51 597.09C609.26 602.76 614.31 608.23 619.52 613.37C624.56 618.44 630 623.11 635.78 627.33C638.01 628.92 640.45 630.36 642.8 631.75C646.88 634.17 651.11 636.67 654.45 640.04C656.03 641.58 656.89 643.71 656.81 645.92C656.68 648.09 655.85 650.17 654.45 651.83C652.69 654.13 649.95 655.46 647.06 655.42V655.41ZM598.84 547.55C595.83 547.49 592.92 546.49 590.51 544.69C588.74 543.3 587.13 541.74 585.68 540.02C584.3 538.38 582.76 536.88 581.09 535.53C577.63 533.06 573.46 531.77 569.21 531.85C565.01 531.82 560.87 532.96 557.28 535.14C557.09 535.27 556.83 535.22 556.7 535.03C556.7 535.02 556.69 535.01 556.68 535C556.58 534.85 556.57 534.66 556.64 534.5C557.65 532.42 558.95 530.48 560.5 528.77C562 527.11 563.74 525.68 565.65 524.52C569.6 522.16 574.12 520.94 578.72 520.98H579.27C583.97 521.08 588.63 522.58 593.95 525.68L594.42 525.96C595.46 526.58 596.6 527.16 597.8 527.78C599.75 528.72 601.63 529.81 603.42 531.02C605.16 532.18 606.57 533.76 607.52 535.61C609.06 538.87 608.63 542.17 606.38 544.44C604.4 546.46 601.67 547.59 598.84 547.55Z" fill="black"/>
<path d="M791.06 720.52C783.85 720.48 776.67 719.82 769.57 718.54C754.35 715.73 739.55 711.03 725.5 704.53C709.47 699.61 693.82 693.56 678.65 686.41C670.86 682.77 662.61 678.84 654.83 674.31C647.06 669.95 639.88 664.61 633.46 658.43C630.5 655.48 627.83 652.25 625.48 648.78C623.15 645.33 621.09 641.71 619.32 637.94C615.83 630.35 613.11 622.43 611.2 614.29C610.6 611.86 610.02 609.36 609.49 606.86C608.94 605.46 608.51 604.01 608.2 602.53C607.12 597.52 606.12 592.41 605.23 587.33C603.47 577.35 602.04 567.15 600.97 557.01C599.9 546.87 599.21 536.49 598.91 526.11C598.86 524.35 598.76 522.53 598.65 520.61C598.44 517 598.23 513.26 598.37 509.6C598.42 506.06 599.03 502.54 600.2 499.19C601.96 494.52 605.93 491.44 610.32 491.34H610.6C613.14 491.39 615.59 492.34 617.49 494.03C620.31 496.41 627.61 511.4 635.35 527.26C642.62 542.17 650.14 557.59 654.33 563.31C663.14 575.39 673.14 586.56 684.19 596.63C684.37 596.74 684.56 596.85 684.75 596.98C699.81 593.35 713.51 585.45 724.18 574.22C727.36 570.86 730.4 567.26 733.33 563.79C739.31 556.71 745.48 549.4 753.15 543.74C755.94 541.67 758.96 539.92 762.15 538.54C765.34 537.16 768.71 536.21 772.15 535.73C774.01 535.48 775.88 535.37 777.76 535.38C781.03 535.38 784.35 535.69 787.56 535.99H787.57C790.78 536.29 794.1 536.6 797.38 536.6C798.45 536.6 799.45 536.57 800.43 536.5C802.04 536.4 803.64 536.25 805.2 536.11C808.18 535.84 810.99 535.59 813.84 535.59C818.06 535.48 822.26 536.3 826.13 537.99C833.12 541.13 838.53 546.73 843.76 552.15L844.21 552.62C847.92 556.48 851.95 560.01 856.27 563.18C860.51 566.27 865.04 568.95 869.8 571.17H869.92C871.27 571.13 872.56 571.71 873.42 572.75C873.93 572.96 874.45 573.16 875.01 573.38C876.46 571.65 879.99 569.12 882.57 567.28C883.62 566.53 884.53 565.87 884.99 565.49C886.02 564.66 887.31 564.22 888.63 564.23C890.05 564.19 891.43 564.74 892.44 565.74C893.25 566.63 893.65 567.82 893.53 569.02L891.6 599.02C891.41 601.96 889.03 620.7 888.19 627.19C887.51 632.44 886.61 637.5 885.53 642.24C884.41 647.17 883 652.03 881.29 656.79C879.59 661.53 877.55 666.14 875.18 670.58C872.78 675.06 870.01 679.32 866.9 683.34C860.1 692.03 851.49 699.14 841.67 704.18C834.91 709.11 827.48 713.05 819.61 715.88C815.04 717.51 810.33 718.7 805.53 719.45C800.75 720.18 795.91 720.54 791.07 720.53L791.06 720.52ZM810.66 585.49C801.97 585.49 792.36 587.04 781.29 590.22C772.96 592.61 764.71 595.7 756.73 598.69C748.16 601.9 739.3 605.21 730.33 607.67C724.33 609.38 718.23 610.7 712.07 611.63C713.03 612.76 714 614.02 715.03 615.47C723.87 620.51 733.07 624.87 742.56 628.53C743.92 629.04 745.25 629.53 746.6 630C748.66 629.43 750.8 628.72 753.14 627.85C757.2 625.93 761.2 623.52 765.06 621.18C769.74 618.18 774.66 615.55 779.75 613.32C783.7 611.73 787.8 610.54 791.98 609.75C796.14 608.97 800.37 608.58 804.6 608.58C815.88 608.6 827 611.25 837.09 616.31C837.8 616.57 838.5 616.84 839.21 617.1C841.9 618.11 844.68 619.15 847.45 620.06C849.68 620.81 851.95 621.44 854.25 621.96C859.21 616.4 863.15 610 865.87 603.06C861.36 602.65 856.97 601.45 852.87 599.53C849.64 598.14 846.49 596.42 843.45 594.77C839.46 592.46 835.29 590.47 830.99 588.8C827.72 587.64 824.34 586.79 820.91 586.26C817.51 585.73 814.08 585.47 810.64 585.48L810.66 585.49Z" fill="black"/>
<path d="M791.66 601.59C784.16 601.63 776.82 599.46 770.55 595.35C767.29 593.27 764.35 590.73 761.82 587.81C759.6 585.28 757.81 582.41 756.5 579.31C755.21 576.26 754.56 572.97 754.6 569.65C754.6 568.95 754.86 568.28 755.31 567.75C755.77 567.22 756.39 566.85 757.08 566.69C757.34 566.63 757.6 566.6 757.86 566.6C758.3 566.6 758.74 566.69 759.15 566.87C759.75 567.14 760.23 567.61 760.51 568.21C761.14 569.04 761.98 570.13 762.82 571.19C765.62 574.83 768.83 578.12 772.4 581C775.9 583.74 779.98 585.66 784.32 586.61C786.12 587.01 787.96 587.21 789.8 587.21C792.96 587.21 796.09 586.63 799.05 585.54C804.07 583.66 808.53 580.53 812 576.44C813.29 574.82 815.23 573.86 817.29 573.82H817.34C819.47 573.88 821.49 574.78 822.97 576.31C824.53 577.83 825.46 579.87 825.6 582.04C825.67 584.14 824.89 586.17 823.42 587.67C820.71 590.57 817.63 593.08 814.24 595.15C810.86 597.22 807.23 598.82 803.43 599.92C799.61 601.03 795.66 601.6 791.68 601.61L791.66 601.59ZM797.18 525.97C791.76 525.9 786.4 525.05 781.36 523.46C774.71 521.36 768.46 518.57 762.76 515.15C761.44 514.34 760.52 513.19 760.16 511.9C759.85 510.68 759.98 509.42 760.53 508.25C761.15 506.87 762.23 505.64 763.66 504.69C765.01 503.75 766.74 503.22 768.54 503.19C769.88 503.19 771.2 503.52 772.32 504.1C772.71 504.34 773.12 504.59 773.55 504.85L773.59 504.88C777.28 507.22 781.17 509.35 785.24 511.25C790.5 513.61 795.07 514.75 799.2 514.75C801.22 514.76 803.23 514.45 805.1 513.84C807.18 513.13 809.05 512.09 810.59 510.78C813.56 507.75 814.73 503.86 813.79 500.11C812.67 496.52 810.32 493.25 806.99 490.65C803.95 488.12 800.48 485.92 796.7 484.11C795.64 483.4 795.29 482.23 795.84 481.22C796.13 480.51 796.68 479.88 797.43 479.42C798.3 478.89 799.37 478.62 800.47 478.63C800.84 478.63 801.2 478.66 801.56 478.71C805.84 479.25 809.96 480.42 813.69 482.16C816.89 483.68 819.67 485.69 821.85 488.08C825.9 492.67 827.75 498.24 827.06 503.8C826.75 506.65 825.85 509.43 824.39 512.05C822.94 514.68 820.9 517.08 818.37 519.14C812.82 523.63 805.15 526.1 797.19 525.98L797.18 525.97ZM707.85 487.54C707.38 487.54 706.91 487.47 706.46 487.34C705.61 487.12 704.9 486.52 704.56 485.7C703.23 482.16 702.34 476.24 705.73 468.17C707.29 464.51 709.37 461.1 711.9 458.05C713.74 455.69 715.99 453.68 718.53 452.1C721.76 450.33 725.38 449.4 729.07 449.38C732.62 449.38 736.12 450.28 739.23 452C741.89 453.5 744.26 455.46 746.25 457.77C748.21 460.07 750.03 462.49 751.7 465.02C752.42 466.06 753.16 467.14 753.91 468.19C755.24 469.86 755.64 472.09 754.98 474.13C754.23 476.18 752.65 477.82 750.62 478.63C749.6 479.06 748.51 479.28 747.41 479.29C746.43 479.29 745.45 479.1 744.55 478.72C742.64 477.89 741.15 476.31 740.42 474.36C739.57 472.3 738.5 470.35 737.21 468.53C735.96 466.71 734.38 465.14 732.54 463.91C730.05 462.19 726.82 461.94 724.09 463.27C721.52 464.44 717.2 468.27 714.26 473.07C712 476.45 710.87 480.46 711.04 484.52C711.12 485.34 710.81 486.15 710.2 486.7C709.69 487.15 709.05 487.44 708.38 487.51C708.2 487.53 708.02 487.55 707.85 487.55V487.54ZM852.81 473.42C852.2 473.42 851.59 473.31 851.01 473.13C849.95 472.81 848.98 472.23 848.19 471.45C847.4 470.68 846.86 469.69 846.62 468.62C846.1 465.95 844.66 463.55 842.55 461.84C840.73 460.36 838.36 459.74 836.05 460.13C833.32 460.71 830.85 462.18 829.06 464.32C828.51 464.99 828.02 465.71 827.59 466.46L827.55 466.53C826.78 467.94 825.81 469.23 824.65 470.34C824.15 470.77 823.51 471.01 822.85 471.02C822.58 471.02 822.31 470.98 822.05 470.9C820.96 469.88 820.08 468.65 819.47 467.29C819.07 466.3 818.89 465.24 818.96 464.18C819.13 461.93 819.92 459.77 821.23 457.93C822.93 455.53 825.05 453.45 827.49 451.81C829.58 450.3 831.93 449.2 834.42 448.55C835.71 448.27 837.03 448.13 838.35 448.13C842.49 448.16 846.51 449.47 849.87 451.88C854.51 455.12 857.72 460.03 858.82 465.58C859.08 466.94 858.96 468.34 858.45 469.63C857.95 470.9 857.01 471.94 855.8 472.57C854.89 473.11 853.86 473.4 852.8 473.43L852.81 473.42ZM689.81 446.74C689.74 446.74 689.67 446.74 689.59 446.73C689.2 446.67 688.83 446.49 688.53 446.22C687.04 444.96 686.31 442.83 686.37 439.9C686.57 436.21 687.52 432.59 689.16 429.27C690.71 426.15 692.5 423.15 694.52 420.3C696.51 417.45 698.82 414.82 701.39 412.47C706.99 407.38 713.52 403.41 720.61 400.77C724.09 399.47 729.31 397.75 734.31 397.75C734.59 397.75 734.88 397.75 735.16 397.77C736.9 397.82 738.62 398.15 740.26 398.74C741.95 399.37 743.49 400.33 744.8 401.56C746.45 403.18 747.35 405.4 747.31 407.71C747.34 410.06 746.43 412.33 744.78 414C743.27 415.47 741.43 416.54 739.41 417.14C737.49 417.68 735.53 418.03 733.54 418.19C731.62 418.37 729.71 418.65 727.82 419.03C723.01 420.07 718.36 421.77 714.01 424.07C709.62 426.45 704.66 429.4 701.07 433.24C700.22 434.14 699.42 435.1 698.65 436.03L698.63 436.06C697.91 436.92 697.23 437.73 696.5 438.53C695.69 439.41 694.95 440.3 694.06 441.37C693.81 441.76 693.58 442.17 693.37 442.59C693.19 442.96 693.02 443.3 692.85 443.63C692.53 444.24 692.22 444.77 691.93 445.21C691.36 446.18 691.06 446.41 690.82 446.51C690.51 446.66 690.16 446.75 689.81 446.76V446.74ZM860.98 444.55C860.87 444.55 860.76 444.55 860.66 444.52C860.29 444.46 859.95 444.29 859.67 444.04C859.39 443.78 859.2 443.45 859.12 443.08C858.21 438.56 856.44 434.26 853.9 430.41C851.23 426.61 847.64 423.55 843.47 421.52C838.82 419.33 833.93 417.69 828.9 416.62C827.5 416.29 825.99 416.07 824.53 415.85H824.46C822.11 415.57 819.79 415.07 817.53 414.36C815.31 413.65 813.33 412.31 811.84 410.52C810.93 409.39 810.26 408.08 809.87 406.68C809.5 405.33 809.42 403.93 809.63 402.55C810.06 399.83 811.78 397.49 814.24 396.27C816.24 395.27 818.45 394.76 820.68 394.8C826.06 394.8 831.89 397.29 836.14 399.12L836.48 399.26H836.49C836.87 399.43 837.25 399.59 837.62 399.75C844.29 402.39 850.32 406.42 855.32 411.56C859.73 416.3 862.86 422.08 864.42 428.37C865.77 434.2 865.13 439.49 862.58 443.67C862.39 443.99 862.1 444.25 861.75 444.4C861.51 444.51 861.24 444.56 860.98 444.56V444.55Z" fill="black"/>
<path d="M563.58 332.03C576 314 596.87 347.09 601.44 356.55C606.01 366.01 620.59 386.6 610.8 388.8C601.01 391 593.69 399.41 588.85 397.7C584.01 395.99 599.67 480.07 591.34 481.53C583.01 482.99 566.39 498.25 557.2 472.62C548.01 446.99 551.16 350.05 563.58 332.02V332.03Z" fill="black"/>
</svg>
