<svg width="656" height="483" viewBox="0 0 656 483" fill="none" xmlns="http://www.w3.org/2000/svg">
<g clip-path="url(#clip0_2_2)">
<path d="M129.971 390.228C129.617 389.144 126.933 389.621 126.675 388.652C126.418 387.686 128.994 386.876 130.97 384.154C131.326 383.663 133.571 380.569 132.71 379.268C131.078 376.802 119.722 382.944 116.996 379.497C116.398 378.741 116.152 377.442 114.369 375.025C113.66 374.064 113.206 373.6 112.662 373.614C111.891 373.633 111.615 374.598 110.403 376.345C108.585 378.966 107.93 378.637 106.732 380.784C105.843 382.378 105.738 383.397 105.097 383.457C104.19 383.542 103.815 381.557 102.707 381.48C101.576 381.401 100.444 383.363 99.883 384.895C98.8301 387.77 99.4821 389.967 99.6266 392.157C99.7837 394.537 99.4149 398.021 96.8289 402.493L72.4373 441.355C77.6756 433.433 92.5452 411.829 98.5362 403.905C100.266 401.618 102.124 399.32 104.985 398.888C107.739 398.472 111.09 399.835 115.767 399.756C116.313 399.746 117.834 399.701 118.203 398.895C118.509 398.229 117.75 397.65 118.026 397.024C118.397 396.184 120.063 396.544 122.334 395.987C123.935 395.593 125.023 394.943 125.959 394.384C126.241 394.216 130.443 391.671 129.971 390.228H129.971Z" fill="#9C7A00"/>
<path d="M66.0851 399.301C65.4509 399.162 64.9106 400.617 64.3604 400.464C63.8122 400.312 64.1579 398.814 63.3919 397.059C63.2538 396.742 62.3833 394.748 61.4962 394.795C59.8149 394.884 59.553 402.23 57.0748 402.573C56.5309 402.649 55.8224 402.395 54.1221 402.572C53.4456 402.643 53.0865 402.732 52.9365 403.003C52.7235 403.387 53.1174 403.801 53.6254 404.9C54.3872 406.548 54.0364 406.775 54.7449 407.982C55.2707 408.878 55.7402 409.224 55.5848 409.556C55.3648 410.026 54.2825 409.637 53.925 410.159C53.5601 410.691 54.196 411.812 54.7861 412.53C55.8934 413.876 57.1601 414.19 58.2767 414.751C59.4902 415.361 61.0938 416.547 62.5424 419.107L74.5783 442.291C72.2014 437.434 65.8886 423.903 63.7279 418.676C63.1042 417.167 62.5131 415.592 63.1264 414.063C63.7168 412.592 65.3524 411.34 66.6631 409.022C66.8161 408.751 67.2326 407.992 66.9438 407.578C66.7051 407.235 66.2018 407.441 65.9742 407.125C65.6688 406.7 66.3265 405.987 66.7079 404.711C66.9769 403.812 66.9718 403.09 66.9675 402.47C66.9662 402.283 66.9293 399.486 66.0851 399.301V399.301L66.0851 399.301Z" fill="#9C7A00"/>
<path d="M78.0928 404.958L78.4711 401.465L78.7031 401.246C79.7767 400.231 80.4482 399.156 80.7002 398.05C80.7403 397.874 80.7713 397.696 80.8031 397.515C80.9287 396.797 81.0847 395.904 81.7751 394.977C82.1615 394.46 83.1837 393.292 84.238 393.7C84.5225 393.807 84.7146 393.991 84.848 394.187C84.8815 394.153 84.9158 394.119 84.9525 394.082C85.4079 393.64 85.7264 393.478 86.0333 393.322C86.2691 393.202 86.5126 393.078 86.9247 392.748C87.1054 392.604 87.2502 392.474 87.3721 392.365C87.7421 392.034 88.2152 391.647 88.8633 391.801C89.5504 391.988 89.7859 392.644 89.9422 393.078C90.2213 393.852 90.3073 394.384 90.3642 394.737C90.3846 394.866 90.4084 395.011 90.4264 395.058C90.5767 395.437 92.4644 395.535 93.1747 395.576C94.7713 395.663 96.1528 395.738 96.4851 396.831C96.7235 397.613 96.2266 398.466 94.9657 399.434C94.573 399.735 94.1803 399.942 93.8383 400.098C94.0487 400.297 94.2163 400.567 94.2266 400.936C94.2497 401.808 93.355 402.477 91.5677 402.928C91.1235 403.042 90.5261 403.192 89.7443 403.154C89.3761 403.136 89.0536 403.079 88.7786 403.027C88.7376 403.183 88.6624 403.346 88.5269 403.501C88.1291 403.956 87.4866 404.072 86.6146 403.815C85.6519 403.547 84.8912 403.182 84.22 402.861C83.6337 402.582 83.1281 402.343 82.704 402.278C81.915 402.168 81.1793 402.655 80.2989 403.303L78.0928 404.958H78.0928L78.0928 404.958Z" fill="#9C7A00"/>
<path d="M84.3889 385.063L80.9143 385.583L80.6432 385.415C79.3895 384.633 78.1794 384.256 77.0454 384.293C76.8651 384.299 76.6852 384.314 76.5018 384.33C75.7753 384.39 74.8721 384.466 73.8 384.033C73.2023 383.79 71.8135 383.098 71.9406 381.975C71.9716 381.672 72.1013 381.44 72.2567 381.261C72.2153 381.237 72.1739 381.213 72.1291 381.187C71.5855 380.858 71.3479 380.591 71.119 380.334C70.943 380.136 70.7617 379.932 70.3384 379.617C70.1528 379.479 69.9902 379.372 69.8536 379.282C69.4402 379.008 68.9461 378.648 68.9299 377.982C68.9373 377.27 69.5115 376.876 69.8915 376.615C70.5693 376.149 71.0623 375.93 71.3893 375.786C71.5088 375.733 71.6433 375.674 71.6844 375.644C72.0128 375.403 71.6288 373.552 71.4883 372.854C71.1671 371.288 70.8892 369.933 71.8624 369.334C72.5585 368.905 73.5096 369.169 74.7654 370.143C75.1562 370.447 75.4568 370.774 75.6937 371.066C75.8328 370.812 76.0519 370.581 76.4058 370.478C77.2437 370.234 78.118 370.929 79.0078 372.544C79.2301 372.945 79.5268 373.485 79.6884 374.25C79.7642 374.611 79.7915 374.938 79.8103 375.217C79.9722 375.217 80.1488 375.248 80.3327 375.34C80.8741 375.609 81.1491 376.201 81.122 377.11C81.1067 378.109 80.9467 378.938 80.8068 379.668C80.6853 380.306 80.5825 380.856 80.627 381.283C80.7204 382.074 81.3782 382.662 82.2286 383.349L84.389 385.063H84.3889L84.3889 385.063Z" fill="#9C7A00"/>
<path d="M84.8572 374.629L85.2355 371.136L85.4675 370.917C86.5411 369.902 87.2126 368.827 87.4646 367.721C87.5047 367.545 87.5357 367.367 87.5675 367.186C87.6931 366.468 87.8491 365.575 88.5395 364.648C88.9259 364.131 89.9481 362.963 91.0024 363.371C91.2869 363.478 91.479 363.662 91.6124 363.858C91.6459 363.824 91.6802 363.79 91.7169 363.753C92.1723 363.311 92.4909 363.149 92.7977 362.993C93.0335 362.872 93.277 362.749 93.6891 362.419C93.8698 362.275 94.0146 362.145 94.1366 362.036C94.5065 361.705 94.9796 361.318 95.6277 361.472C96.3148 361.659 96.5503 362.315 96.7066 362.749C96.9857 363.523 97.0717 364.055 97.1286 364.408C97.149 364.537 97.1728 364.682 97.1908 364.729C97.3411 365.108 99.2288 365.206 99.9391 365.247C101.536 365.334 102.917 365.409 103.249 366.502C103.488 367.284 102.991 368.137 101.73 369.105C101.337 369.406 100.945 369.613 100.603 369.769C100.813 369.968 100.981 370.238 100.991 370.607C101.014 371.479 100.119 372.148 98.3321 372.599C97.8879 372.713 97.2905 372.863 96.5087 372.825C96.1405 372.807 95.818 372.75 95.543 372.698C95.502 372.854 95.4269 373.017 95.2913 373.172C94.8935 373.627 94.251 373.743 93.379 373.486C92.4163 373.218 91.6556 372.853 90.9844 372.532C90.3981 372.253 89.8925 372.014 89.4684 371.949C88.6794 371.839 87.9437 372.326 87.0633 372.974L84.8572 374.629H84.8572H84.8572Z" fill="#9C7A00"/>
<path d="M73.5906 441.554L72.9763 440.947L72.9873 440.084L72.9763 440.947L72.1224 440.857C72.1265 440.777 72.1208 440.589 72.1146 440.295C72.0817 438.689 71.9798 433.798 72.6607 426.284C73.1362 421.039 73.9308 415.715 75.0224 410.457C76.1158 405.191 77.2505 401.272 78.162 398.123C78.8498 395.748 79.5441 393.495 80.2218 391.3C82.0305 385.437 83.7382 379.898 84.7958 373.581C85.0326 372.17 85.5241 369.235 84.5178 365.77C83.9339 363.76 82.9343 361.869 81.5455 360.15L82.8896 359.064C84.4221 360.964 85.5276 363.059 86.176 365.29C87.2917 369.132 86.7562 372.33 86.4989 373.867C85.4225 380.296 83.6977 385.888 81.8713 391.808C81.197 393.995 80.505 396.238 79.8202 398.603C78.9169 401.724 77.7924 405.608 76.7132 410.806C75.6339 416.002 74.8496 421.261 74.3793 426.44C73.7074 433.859 73.8083 438.676 73.8414 440.259C73.8585 441.104 73.8622 441.281 73.5906 441.554L73.5906 441.554Z" fill="#9C7A00"/>
<path d="M77.8583 362.138C77.7891 362.122 77.7196 362.105 77.6499 362.084C76.2323 361.687 75.0952 360.531 74.2692 358.651C73.8826 357.767 73.7914 356.836 73.6094 354.98C73.5808 354.694 73.4547 353.246 73.6098 351.327C73.7107 350.073 73.8455 349.569 74.1867 349.174C74.5657 348.733 75.0763 348.481 75.6158 348.354C75.6304 348.188 75.6847 348.026 75.7924 347.872C76.2363 347.234 76.9792 347.496 77.3823 347.632C77.5854 347.705 77.8385 347.798 78.1232 347.846C78.5706 347.923 78.8378 347.845 79.2421 347.728C79.6291 347.615 80.1102 347.476 80.7751 347.488C82.0873 347.506 83.0587 348.095 83.379 348.289C85.0659 349.303 85.6483 350.92 86.3223 352.793C86.4563 353.168 86.9008 354.525 87.0043 356.271C87.079 357.532 86.9138 358.048 86.7245 358.417C86.3377 359.175 85.7454 359.527 84.2754 360.266C82.7397 361.041 81.9692 361.429 81.3375 361.628C79.8674 362.09 78.9442 362.38 77.8583 362.137V362.138Z" fill="#9C7A00"/>
<path d="M272.893 256.007C277.477 252.135 276.26 243.156 270.175 235.952C267.511 232.799 264.355 230.509 261.265 229.255L257.713 225.156L211.846 167.686C211.846 167.686 186.446 110.515 178.948 104.338C171.45 98.1621 162.628 101.378 162.628 101.378L155.745 109.894L198.637 189.718L242.534 233.895L248.46 240.073C249.18 243.33 250.91 246.823 253.574 249.976C259.66 257.18 268.309 259.88 272.893 256.007Z" fill="#FFB6B6"/>
<path d="M186.313 114.969L197.807 131.826L214.308 156.248L184.658 166.504L158.48 121.585L186.313 114.969Z" fill="#E6E6E6"/>
<path d="M656 440H0V442H656V440Z" fill="#3F3D56"/>
<path d="M464.413 300.984H412.112V283.224C412.112 254.656 435.306 231.462 463.874 231.462H464.413V300.984Z" fill="#2F2E41"/>
<path d="M423.768 291.684L432.436 263.311L454.675 262.198L464.413 300.984L423.768 291.684Z" fill="#A0616A"/>
<path opacity="0.1" d="M423.768 291.684L432.436 263.311L454.675 262.198L464.413 300.984L423.768 291.684Z" fill="black"/>
<path d="M444.003 279.936C458.445 279.936 470.153 268.228 470.153 253.785C470.153 239.343 458.445 227.635 444.003 227.635C429.56 227.635 417.853 239.343 417.853 253.785C417.853 268.228 429.56 279.936 444.003 279.936Z" fill="#A0616A"/>
<path d="M388.577 399.952L381.656 406.874C381.656 406.874 344.671 382.067 330.487 391.318C316.302 400.57 315.685 418.484 332.363 428.368C349.042 438.252 391.666 462.343 391.666 462.343C391.666 462.343 448.497 472.227 486.797 441.958C525.096 411.689 532.2 413.233 525.405 397.172C518.61 381.111 503.784 384.818 503.784 384.818L475.369 401.496L463.632 399.026L388.577 399.952Z" fill="#2F2E41"/>
<path d="M390.121 407.674L419.773 420.646L408.653 447.209L364.794 436.707" fill="#2F2E41"/>
<path d="M465.91 407.674L425.95 426.206L441.393 458.328L485.87 439.178" fill="#2F2E41"/>
<path d="M324.2 271.481C322.786 263.741 317.647 258.196 312.72 259.096C307.794 259.996 304.948 267 306.363 274.743C306.886 277.844 308.144 280.775 310.031 283.29L316.434 316.012L331.725 312.68L323.79 280.776C324.667 277.755 324.807 274.568 324.2 271.481Z" fill="#A0616A"/>
<g filter="url(#filter0_d_2_2)">
<path d="M387.784 304.041L346.282 329.558L325.53 289.562L309.569 287.83C309.569 287.83 305.975 350.832 327.791 358.181C349.607 365.531 413.581 341.38 417.394 323.119C418.551 317.576 417.193 313.077 414.74 309.499C408.75 300.762 396.807 298.493 387.784 304.041Z" fill="#FF0000"/>
</g>
<g filter="url(#filter1_d_2_2)">
<path d="M425.95 286.547L387.342 303.586L399.696 371.536L388.577 399.952L447.879 409.218L478.29 399.782L475.677 386.362L478.29 336.277L488.65 306.674L460.852 287.525L425.95 286.547Z" fill="#FF0000"/>
</g>
<path d="M416.066 423.117L435.216 428.677L425.95 451.38L400.623 441.649L416.066 423.117Z" fill="#A0616A"/>
<path d="M442.68 423.117L419.155 434.854V452.78L445.717 449.68L442.68 423.117Z" fill="#A0616A"/>
<path d="M408.653 457.092C408.653 457.092 449.424 484.273 464.867 473.153C480.31 462.034 488.959 447.826 485.87 445.973C482.781 444.12 473.515 441.031 473.515 441.031L421.626 451.533L408.653 457.092Z" fill="#2F2E41"/>
<path d="M356.764 436.707C356.764 436.707 335.761 468.829 355.528 473.771C375.296 478.713 425.111 458.328 425.111 458.328L421.626 431.765L412.36 441.031L356.764 436.707Z" fill="#2F2E41"/>
<path d="M487.663 214.367C481.885 209.026 479.957 201.715 483.357 198.038C486.757 194.361 494.196 195.711 499.975 201.055C502.313 203.158 504.114 205.791 505.226 208.732L529.422 231.672L518.415 242.797L495.73 219.001C492.71 218.123 489.943 216.534 487.663 214.367Z" fill="#A0616A"/>
<path d="M481.082 285.499L524.865 264.132L502.216 225.179L509.306 210.775C509.306 210.775 564.425 241.5 558.94 263.858C553.455 286.215 498.784 327.289 481.323 320.722C476.022 318.729 472.951 315.171 471.245 311.183C467.078 301.444 471.562 290.145 481.082 285.499Z" fill="#E6E6E6"/>
<path d="M393.939 274.941C395.269 270.897 397.894 267.356 399.069 263.264C400.629 257.83 403.95 269.884 404.274 264.241C404.89 253.513 421.262 225.92 430.609 220.619C439.955 215.319 445.323 216.917 454.846 221.895C454.846 221.895 459.468 222.189 465.222 225.03C470.977 227.871 476.157 232.421 478.395 238.435C480.169 243.203 479.973 248.438 480.565 253.49C482.217 267.565 490.106 280.951 488.413 295.021C487.885 299.411 486.216 303.95 482.627 306.532C479.038 309.114 473.239 308.833 470.877 305.096C470.071 303.821 469.73 302.307 469.039 300.966C468.348 299.625 467.099 298.374 465.591 298.416C463.324 298.479 462.17 301.521 463.064 303.605C463.958 305.689 466.059 306.948 468.031 308.067C463.334 310.18 457.507 309.522 453.399 306.414C449.291 303.307 447.073 297.878 447.829 292.783C448.894 285.603 459.354 287.089 460.586 279.936C461.483 274.728 464.633 266.015 463.775 260.801C462.917 255.587 458.796 261.901 463.137 258.888C458.361 261.19 448.146 245.44 443.146 243.675C438.146 241.911 433.907 238.091 431.633 233.301C426.33 240.989 421.665 238.901 419.766 248.045C417.867 257.189 421.02 285.394 428.84 290.499C425.711 292.635 421.818 288.257 420.35 291.75C419.518 293.728 418.979 295.893 417.598 297.536C414.961 300.675 410.092 300.866 406.21 299.546C401.398 297.91 397.283 294.316 395.015 289.767C392.746 285.219 392.351 279.77 393.939 274.941H393.939Z" fill="#2F2E41"/>
<path d="M617.051 349.012L468.39 395.999V214.986L617.051 168V349.012Z" fill="white"/>
<path d="M467.39 397.364V214.254L618.051 166.635V349.745L467.39 397.364ZM469.39 215.719V394.634L616.051 348.28V169.365L469.39 215.719Z" fill="#3F3D56"/>
<path d="M253 389.167L372.222 426.849V281.682L253 244V389.167Z" fill="white"/>
<path d="M373.223 428.214L371.921 427.802L252 389.899V242.635L253.302 243.047L373.223 280.949V428.214ZM254 388.435L371.223 425.483V282.414L254 245.365V388.435Z" fill="#3F3D56"/>
<path d="M504.521 226.173C502.823 235.03 505.922 244.659 512.468 250.861C519.014 257.063 528.797 259.64 537.548 257.467C545.857 255.403 553.629 246.618 550.113 238.811C547.607 233.246 539.963 231.14 534.477 233.816C528.991 236.493 525.94 242.926 526.257 249.021C526.574 255.117 529.818 260.784 534.145 265.088C545.433 276.316 563.513 279.228 573.461 291.657C582.149 302.511 581.882 319.547 572.858 330.123C563.834 340.7 547.052 343.645 534.966 336.774C529.984 333.942 525.698 329.398 524.461 323.803C523.223 318.208 525.717 311.646 530.952 309.315C540.825 304.921 550.766 316.725 561.572 316.898C567.761 316.997 573.772 312.716 575.702 306.835C577.632 300.954 575.327 293.944 570.283 290.356" fill="#6C63FF"/>
<path d="M295.311 352.825C297.222 358.434 293.262 365.275 287.445 366.411C281.629 367.546 275.386 362.698 275.047 356.782C274.707 350.866 280.354 345.335 286.262 345.797C295.78 346.542 301.401 359.571 310.929 358.962C317.449 358.545 321.567 351.877 323.973 345.803C326.744 338.81 328.771 331.523 330.008 324.103C331.039 317.914 331.513 311.506 330.025 305.41C328.536 299.315 324.849 293.527 319.258 290.679C310.765 286.353 299.14 290.573 295.085 299.198C291.029 307.824 294.936 319.219 303.262 323.858C313.674 329.659 328.016 325.481 337.476 332.732C345.057 338.543 346.361 349.26 347.053 358.787C347.494 364.864 347.93 371.035 346.686 376.999C345.442 382.964 342.273 388.801 337.018 391.884C333.038 394.22 327.724 394.682 323.894 392.109C320.063 389.536 318.625 383.581 321.604 380.056C324.042 377.171 328.481 376.711 332.05 377.95C335.618 379.189 338.523 381.786 341.324 384.32" fill="#6C63FF"/>
<path d="M197.983 57.5969L189.658 89.3352L157.92 83.0916C157.92 83.0916 170.407 60.1984 167.285 49.7924L197.983 57.5969H197.983Z" fill="#FFB6B6"/>
<path d="M164.479 470.732L183.591 470.73L192.683 397.009L164.475 397.011L164.479 470.732Z" fill="#FFB6B6"/>
<path d="M229.961 470.298C230.556 471.3 230.87 474.535 230.87 475.701C230.87 479.283 227.966 482.188 224.383 482.188H165.194C162.75 482.188 160.768 480.206 160.768 477.762V475.298C160.768 475.298 157.84 467.892 163.869 458.763C163.869 458.763 171.361 465.911 182.557 454.715L185.858 448.734L209.756 466.212L223.003 467.843C225.901 468.199 228.47 467.787 229.961 470.298H229.961Z" fill="#2F2E41"/>
<path d="M217.548 257.382L191.211 436.598H158.169L162.563 334.297L164.875 280.507L158.169 254.903C158.169 254.903 155.111 249.211 152.536 242.313C149.632 234.527 147.339 225.194 150.743 220.768C151.996 219.137 155.253 217.929 159.678 217.03C162.383 216.477 165.53 216.047 168.928 215.713C188.469 213.779 216.263 214.987 216.263 214.987L216.97 238.304L217.362 251.325L217.548 257.382H217.548Z" fill="#2F2E41"/>
<path d="M130.812 461.967L149.721 464.745L169.44 393.131L141.531 389.03L130.812 461.967Z" fill="#FFB6B6"/>
<path d="M195.66 471.063C196.103 472.141 195.943 475.387 195.774 476.54C195.253 480.085 191.957 482.536 188.412 482.014L129.852 473.405C127.434 473.049 125.762 470.801 126.118 468.383L126.476 465.945C126.476 465.945 124.657 458.191 131.949 450.037C131.949 450.037 138.322 458.198 151.027 448.75L155.163 443.313L176.265 464.081L189.133 467.621C191.948 468.396 194.55 468.362 195.66 471.063L195.66 471.063H195.66Z" fill="#2F2E41"/>
<path d="M217.962 227.494L214.35 258.603L194.65 324.158L162.222 432.084L129.534 427.28L158.871 273.826L155.966 247.512C155.966 247.512 155.02 244.897 153.936 241.067C151.783 233.492 149.084 221.155 152.054 214.862C152.455 214.007 152.958 213.265 153.581 212.664C154.749 211.531 157.123 210.843 160.304 210.478C173.6 208.975 200.981 213.273 213.165 215.383L217.962 227.494V227.494Z" fill="#2F2E41"/>
<path d="M192.78 79.9698L228.68 125.236L222.236 172.43L216.713 220.451L151.676 210.565C151.676 210.565 165.724 176.746 167.285 175.185C168.846 173.624 172.767 177.479 170.026 172.43C167.285 167.38 164.163 167.38 166.765 164.779C169.366 162.177 146.473 128.358 146.473 110.147C146.473 91.9367 157.399 77.3683 157.399 77.3683L192.78 79.9698L192.78 79.9698Z" fill="#3479FF"/>
<path d="M184.404 63.5906C197.76 63.5906 208.588 52.7629 208.588 39.4061C208.588 26.0494 197.76 15.2216 184.404 15.2216C171.047 15.2216 160.219 26.0494 160.219 39.4061C160.219 52.7629 171.047 63.5906 184.404 63.5906Z" fill="#FFB6B6"/>
<path d="M183.273 85.6461C183.273 85.6461 186.892 57.0114 187.533 48.6842C188.173 40.357 199.928 27.3559 199.928 27.3559L208.255 34.0817C208.255 34.0817 215.301 34.0817 210.497 23.8329C205.693 13.584 196.725 11.9827 196.725 11.9827C196.725 11.9827 195.764 -1.46894 179.11 0.132453C162.455 1.73383 155.089 15.1854 155.089 15.1854C155.089 15.1854 154.128 -1.7892 143.559 10.7016C132.99 23.1923 126.905 28.3167 138.114 32.4803C149.324 36.6439 157.651 33.4412 157.651 33.4412C157.651 33.4412 146.762 35.6831 148.683 43.3697C150.605 51.0564 123.382 85.9664 135.872 89.8098C148.363 93.6531 176.227 102.941 179.43 96.8558C182.633 90.7706 183.273 85.6462 183.273 85.6462V85.6461Z" fill="#2F2E41"/>
<path d="M282.967 258.406C287.583 254.572 286.442 245.583 280.417 238.329C277.779 235.153 274.643 232.837 271.564 231.557L268.046 227.428L222.662 169.576C222.662 169.576 197.742 112.194 190.296 105.955C182.85 99.7158 174.001 102.857 174.001 102.857L167.047 111.315L209.269 191.496L252.794 236.04L258.668 242.267C259.36 245.53 261.062 249.037 263.699 252.213C269.724 259.467 278.351 262.24 282.967 258.406H282.967Z" fill="#FFB6B6"/>
<g filter="url(#filter2_d_2_2)">
<path d="M164.413 98.4098C164.413 98.4098 175.523 156.064 188.165 164.564L213.358 144.919C213.358 144.919 215.563 144.824 211.46 140.19C207.356 135.555 208.407 125.602 208.407 125.602C208.407 125.602 210.253 127.991 206.236 124.674C202.218 121.358 205.958 98.552 205.958 98.552L164.413 98.4098L164.413 98.4098Z" fill="#3479FF"/>
</g>
</g>
<defs>
<filter id="filter0_d_2_2" x="305.348" y="287.83" width="116.464" height="79.704" filterUnits="userSpaceOnUse" color-interpolation-filters="sRGB">
<feFlood flood-opacity="0" result="BackgroundImageFix"/>
<feColorMatrix in="SourceAlpha" type="matrix" values="0 0 0 0 0 0 0 0 0 0 0 0 0 0 0 0 0 0 127 0" result="hardAlpha"/>
<feOffset dy="4"/>
<feGaussianBlur stdDeviation="2"/>
<feComposite in2="hardAlpha" operator="out"/>
<feColorMatrix type="matrix" values="0 0 0 0 0 0 0 0 0 0 0 0 0 0 0 0 0 0 0.25 0"/>
<feBlend mode="normal" in2="BackgroundImageFix" result="effect1_dropShadow_2_2"/>
<feBlend mode="normal" in="SourceGraphic" in2="effect1_dropShadow_2_2" result="shape"/>
</filter>
<filter id="filter1_d_2_2" x="383.342" y="286.547" width="109.308" height="130.671" filterUnits="userSpaceOnUse" color-interpolation-filters="sRGB">
<feFlood flood-opacity="0" result="BackgroundImageFix"/>
<feColorMatrix in="SourceAlpha" type="matrix" values="0 0 0 0 0 0 0 0 0 0 0 0 0 0 0 0 0 0 127 0" result="hardAlpha"/>
<feOffset dy="4"/>
<feGaussianBlur stdDeviation="2"/>
<feComposite in2="hardAlpha" operator="out"/>
<feColorMatrix type="matrix" values="0 0 0 0 0 0 0 0 0 0 0 0 0 0 0 0 0 0 0.35 0"/>
<feBlend mode="normal" in2="BackgroundImageFix" result="effect1_dropShadow_2_2"/>
<feBlend mode="normal" in="SourceGraphic" in2="effect1_dropShadow_2_2" result="shape"/>
</filter>
<filter id="filter2_d_2_2" x="160.413" y="98.4098" width="57.5371" height="74.1537" filterUnits="userSpaceOnUse" color-interpolation-filters="sRGB">
<feFlood flood-opacity="0" result="BackgroundImageFix"/>
<feColorMatrix in="SourceAlpha" type="matrix" values="0 0 0 0 0 0 0 0 0 0 0 0 0 0 0 0 0 0 127 0" result="hardAlpha"/>
<feOffset dy="4"/>
<feGaussianBlur stdDeviation="2"/>
<feComposite in2="hardAlpha" operator="out"/>
<feColorMatrix type="matrix" values="0 0 0 0 0 0 0 0 0 0 0 0 0 0 0 0 0 0 0.25 0"/>
<feBlend mode="normal" in2="BackgroundImageFix" result="effect1_dropShadow_2_2"/>
<feBlend mode="normal" in="SourceGraphic" in2="effect1_dropShadow_2_2" result="shape"/>
</filter>
<clipPath id="clip0_2_2">
<rect width="656" height="482.188" fill="white"/>
</clipPath>
</defs>
</svg>
